<svg id="Layer_1" data-name="Layer 1" xmlns="http://www.w3.org/2000/svg" viewBox="0 0 429.81 120.41"><defs><style>.cls-1,.cls-4{fill:#e4203c;}.cls-2{fill:#fff;}.cls-3{fill:none;stroke:#fff;stroke-miterlimit:10;}.cls-4{font-size:107.75px;font-family:LeagueGothic-Regular, League Gothic;}.cls-5{letter-spacing:0em;}.cls-6{fill:#58555a;}</style></defs><title>logo</title><rect class="cls-1" x="4" y="1.59" width="104.63" height="104.63" rx="20.49"/><path class="cls-2" d="M28.58,117.71s57.49.74,80-27.88c0,0-24-30.58-78.77-27.65l-6.36-.24,8.32-15.41S97.81,48.48,116.4,77.6c0,0,13.46-20.06,11.25-28.63L133,63.41s-8.32,13.45-11.26,22.5c0,0,15.41,21.53,13.46,27.89l-8.57,13.94s-11.25-29.6-14.18-30.82c0,0-15.41,24-78.28,28.13Z" transform="translate(-23.44 -33.4)"/><line class="cls-3" x1="10.27" y1="32.21" x2="10.27" y2="79.91"/><line class="cls-3" x1="24.95" y1="78.65" x2="24.95" y2="33.47"/><line class="cls-3" x1="39.71" y1="75.6" x2="39.71" y2="35.95"/><line class="cls-3" x1="54.67" y1="70.51" x2="54.67" y2="41.29"/><line class="cls-3" x1="69.35" y1="49.42" x2="69.35" y2="64.57"/><text class="cls-4" transform="translate(126.33 93.47)">Da<tspan class="cls-5" x="74.88" y="0">a</tspan><tspan x="109.37" y="0">ne </tspan><tspan class="cls-6" x="196.96" y="0">Lab</tspan></text><circle class="cls-2" cx="10.27" cy="32.86" r="2.04"/><circle class="cls-2" cx="39.71" cy="35.95" r="2.04"/><circle class="cls-2" cx="54.67" cy="40.35" r="2.04"/><circle class="cls-2" cx="24.95" cy="33.47" r="2.04"/><circle class="cls-2" cx="10.27" cy="79.91" r="2.04"/><circle class="cls-2" cx="24.95" cy="78.65" r="2.04"/><circle class="cls-2" cx="39.71" cy="75.6" r="2.04"/><circle class="cls-2" cx="54.8" cy="71.61" r="2.04"/><circle class="cls-2" cx="69.35" cy="64.57" r="2.04"/><circle class="cls-2" cx="69.35" cy="47.95" r="2.04"/></svg>