<svg id="Layer_1" data-name="Layer 1" xmlns="http://www.w3.org/2000/svg" viewBox="0 0 93.9 94.1"><defs><style>.cls-1{fill:#dfeef5;}.cls-2{fill:#0bb9e8;}.cls-3{fill:#097dc2;}.cls-4{fill:#fff;}</style></defs><title>daane lab ice only</title><polygon class="cls-1" points="1.9 30.4 2.1 25.5 49.2 2.1 64.4 12.8 71 11 83.9 22.8 88.3 22 93.2 26.5 92.4 26.1 92.1 29.5 1.9 30.4"/><polygon class="cls-2" points="0 26.7 9.1 17.1 14.6 18.5 28 6.2 33.6 8.8 47.1 0 63.6 11.9 70.2 9.7 84.6 21.6 88.4 20.9 93.9 25.9 91 27.9 86.2 23.3 82.7 23.9 68.9 12.3 62.2 14.2 47.1 3.5 40.4 16 50.7 24.4 35 20.1 20.4 26.6 10.8 28.4 6.6 30.1 0 26.7"/><path class="cls-3" d="M235.4,50.8,240.1,68l8.2,3.4,7.8,26.4,5.4-3.3,13.2,23.7,9.5-11.1,8.1,9.9,8.7-14.5,6.2,1.4,11.1-26.6,5.6-2.4,5.4-25s-4.9,2.6-8.4,1.5c0,0-6.5-2.4-9.4-1.3,0,0-7.1,2.4-9.5,1.9,0,0-4.3-.6-5.8-1.4,0,0-6.7-2.2-9.3.5,0,0-2.8,3.8-11.2.1,0,0-7.1-2.8-12.3.6,0,0-4.8,1.8-11.2-1.2,0,0-6.9-1.2-8.9.1C243.4,50.9,240.2,53.3,235.4,50.8Z" transform="translate(-235.4 -24.1)"/><path class="cls-4" d="M303.8,73.8c.7,2.9-9.5,2.9-9.5,2.9-.2-.1-4.7.7-4.7.7a3.74,3.74,0,0,1-3.1-.3,1.83,1.83,0,0,0-1-.7l.5-.9,17.5-2.3.5.3" transform="translate(-235.4 -24.1)"/><path class="cls-4" d="M303.5,71.3a4.87,4.87,0,0,1-.4-1.1,16.54,16.54,0,0,0-3.2-.7l-.7-.1H298c-2-.3-3.9-.8-5.7-1.2l-.7-.2c-2.1-.4-4-1.3-6.4-1.6a1.08,1.08,0,0,1-.7.3c-.1,0-.1-.1-.2-.1-1.2,1.5-1.6,1.4-1.6,1.4l.7.9,9.2,2.4,10.2.8h1Z" transform="translate(-235.4 -24.1)"/><path class="cls-4" d="M305.1,71.2s5.8-3.8,7-3.2c0,0,1.2,1.3.5,6.3,0,0-.1,5.9-3.3,3.4,0,0-4.4-3.1-4.4-3.7" transform="translate(-235.4 -24.1)"/><path class="cls-4" d="M256,72.4s-.8-.8.1-.9a2.52,2.52,0,0,0,.6-.2,4.87,4.87,0,0,1,1.2.1s5.5-.5,7-2.1c0,0,1-1,4.1-.5a7.57,7.57,0,0,1,1.5-.1,23.39,23.39,0,0,1,3.8-.9l7.4-.3s12.5,4.3,23.3,3.8c0,0,1.9-.3,2.2.7,0,0-.2,2.1-.6,2.1,0,0-.5.8-2.5-.3,0,0-11.3,1.6-11.7,1.5a30.72,30.72,0,0,0-6.7,1.4,12.32,12.32,0,0,1-3.1,1.4s-6.3.5-9-.5l-2.7-.6a8.44,8.44,0,0,1-5.2-.5s-4.7-.6-4.7-1.1l-2.2-1h-1a4.18,4.18,0,0,1-1.8-1.1C255.8,73.1,255.6,72.4,256,72.4Z" transform="translate(-235.4 -24.1)"/><path class="cls-4" d="M274.4,67.8s1.3-5,1.7-5.1c0,0,.6,1,1.4-.6,0,0,.2.7.7.7,0,0-.3,1.5.5,1.2,0,0-.3,1.3.4,1.2,0,0-.3,1.1.4,1l.3.8s.3.6.6.6" transform="translate(-235.4 -24.1)"/><path class="cls-4" d="M274.6,72.1s4.1-.6,4.2-.5,4.7-.3,5.2.3a4,4,0,0,1-.7,5.2s-2.1,2.5-6.1,1.2a23.26,23.26,0,0,0-2.6-1.7h-1.3s2.2-.2,2.3-2.2C275.7,74.2,275.4,72.1,274.6,72.1Z" transform="translate(-235.4 -24.1)"/><path class="cls-4" d="M271.2,76.6a27.59,27.59,0,0,1,.8,2.7s.7,5.7,2.3,5.9c0,0,2,1.3.2-1.7l-.6-2.2-.1-2.9s-.8-1.7-1.2-1.8S272.2,77.3,271.2,76.6Z" transform="translate(-235.4 -24.1)"/><path class="cls-4" d="M265,69.6s1.9-1.2,2.7-.4a1.31,1.31,0,0,1-.7,1.9s-1.4.7-2.1,0C265,71,264.5,69.8,265,69.6Z" transform="translate(-235.4 -24.1)"/><path class="cls-4" d="M266.8,70.1a.54.54,0,0,1-.7.5.54.54,0,0,1-.5-.5.54.54,0,0,1,.7-.5C266.5,69.6,266.7,69.8,266.8,70.1Z" transform="translate(-235.4 -24.1)"/><path class="cls-4" d="M267.1,76.5a2.48,2.48,0,0,0,3.2-1.5h0s1.9-1.2,1.9-1.9c0,0,1.9-2.2,2.2-2.1" transform="translate(-235.4 -24.1)"/><path class="cls-4" d="M273.6,72.8s-1.7,2.1-2.9,2.4" transform="translate(-235.4 -24.1)"/><path class="cls-4" d="M273,74.1a4.32,4.32,0,0,1-2.6,1.3" transform="translate(-235.4 -24.1)"/><path class="cls-4" d="M272,75.5a15.55,15.55,0,0,1-2.3.8" transform="translate(-235.4 -24.1)"/><path class="cls-4" d="M272.1,69.8s.2.7,1.4.2c0,0-.4.3.2.2,0,0-.7.5-.2.6,0,0-1.2.1-.8.2l.4.2s.5.2,0,.3l-.5.1-.8.1V72" transform="translate(-235.4 -24.1)"/><path class="cls-4" d="M256.7,71.8a7.06,7.06,0,0,0,2.4.6s6,1.4,6.5,2.1" transform="translate(-235.4 -24.1)"/><path class="cls-4" d="M256.9,73.7a4,4,0,0,1,1.5.3l1.2.6s4.7.9,5.4,1.4" transform="translate(-235.4 -24.1)"/><path class="cls-4" d="M266.6,75.3a18.12,18.12,0,0,0-3.1-.9,24.91,24.91,0,0,1-3.7-.9" transform="translate(-235.4 -24.1)"/><path class="cls-4" d="M266,74.8a8.8,8.8,0,0,1-1.5-.5c-.5-.2-7.3-1.7-7.3-1.7-.5-.2-1-.4-1.4-.6" transform="translate(-235.4 -24.1)"/><path class="cls-4" d="M259.9,72.3l2.7.7s2.2.5,2.4.5a14,14,0,0,1,1.8,1.2s.2.7-.7.3" transform="translate(-235.4 -24.1)"/><path class="cls-4" d="M273.1,68.8s-1.3.7.3,1c0,0,1.9.2,1.8.6a5.33,5.33,0,0,0-1.6,2.3,7.73,7.73,0,0,1-2.9,4" transform="translate(-235.4 -24.1)"/></svg>