<svg id="Layer_1" data-name="Layer 1" xmlns="http://www.w3.org/2000/svg" viewBox="0 0 324.12 94.1"><defs><style>.cls-1{fill:#dfeef6;}.cls-2{isolation:isolate;}.cls-3{fill:#007cc2;}.cls-4{fill:#00b8e8;}.cls-5{fill:#fff;}</style></defs><title>Daane lab logo ice2</title><polygon class="cls-1" points="1.9 30.4 2.1 25.5 49.2 2.1 64.4 12.8 71 11 83.9 22.8 88.3 22 93.2 26.5 92.4 26.1 92.1 29.5 1.9 30.4"/><g class="cls-2"><path class="cls-3" d="M109.13,78.7V19.93h6.79c8,0,12.32,1.6,14.64,6.08s2.56,11.83,2.56,23.35-.32,18.79-2.56,23.26-6.64,6.08-14.64,6.08Zm8.63-8.63c3,0,4.64-.32,5.52-3.2a25.74,25.74,0,0,0,.8-6.24c.08-2.8.08-6.56.08-11.35s0-8.56-.08-11.36a26.8,26.8,0,0,0-.8-6.23c-.88-2.8-2.56-3.12-5.52-3.12Z" transform="translate(-1.3 0)"/><path class="cls-3" d="M151.11,45.36a10.14,10.14,0,0,0-.24-2.64,2,2,0,0,0-2-1.36c-1.36,0-1.92,1-2.16,2.32a16.89,16.89,0,0,0-.16,2.08v2.08h-8.08V46a12.36,12.36,0,0,1,3.12-8.24,10.22,10.22,0,0,1,7.76-3.44,9.86,9.86,0,0,1,6.87,2.8,9.7,9.7,0,0,1,3,7.12V71.1a40.06,40.06,0,0,0,.56,7.6h-7.91c-.72-.88-.72-3-.72-3.52h-.56a8.91,8.91,0,0,1-2.24,2.64,7,7,0,0,1-4.24,1.52,5.17,5.17,0,0,1-4-2c-1.36-1.52-2.48-4.24-2.48-8.79A16.85,16.85,0,0,1,141,57.75a19.33,19.33,0,0,1,6.32-5c2-1,3.52-1.75,3.84-2.63Zm0,12.23c-3.92,1.68-5.6,5.6-5.6,9.76a7.46,7.46,0,0,0,.4,2.4c.32,1,.88,1.67,1.84,1.67,1.84,0,3.36-1.12,3.36-2.63Z" transform="translate(-1.3 0)"/></g><g class="cls-2"><path class="cls-3" d="M176.93,45.36a10.14,10.14,0,0,0-.24-2.64,2,2,0,0,0-2-1.36c-1.36,0-1.92,1-2.16,2.32a16.89,16.89,0,0,0-.16,2.08v2.08H164.3V46a12.36,12.36,0,0,1,3.12-8.24,10.2,10.2,0,0,1,7.75-3.44,9.88,9.88,0,0,1,6.88,2.8,9.7,9.7,0,0,1,3,7.12V71.1a40.06,40.06,0,0,0,.56,7.6h-7.92c-.72-.88-.72-3-.72-3.52h-.56a8.91,8.91,0,0,1-2.24,2.64,7,7,0,0,1-4.23,1.52,5.17,5.17,0,0,1-4-2c-1.36-1.52-2.48-4.24-2.48-8.79a16.85,16.85,0,0,1,3.36-10.8,19.31,19.31,0,0,1,6.31-5c2-1,3.52-1.75,3.84-2.63Zm0,12.23c-3.92,1.68-5.6,5.6-5.6,9.76a7.46,7.46,0,0,0,.4,2.4c.32,1,.88,1.67,1.84,1.67,1.84,0,3.36-1.12,3.36-2.63Z" transform="translate(-1.3 0)"/></g><g class="cls-2"><path class="cls-3" d="M198.36,78.7h-8.07V35h8.07v3.68a6.6,6.6,0,0,0,1-.88,16.57,16.57,0,0,1,3.52-2.88,4.07,4.07,0,0,1,2.08-.56,5.36,5.36,0,0,1,4.64,2.88A12,12,0,0,1,211,42.88V78.7h-8.08V44.08c0-1.68-1-1.92-1.92-1.92a2.59,2.59,0,0,0-1.92,1,11.7,11.7,0,0,0-.72,1Z" transform="translate(-1.3 0)"/><path class="cls-3" d="M237.46,63v5c-.24,4.23-1.52,7.19-4.39,9.51A9.18,9.18,0,0,1,227,79.34a9.31,9.31,0,0,1-9.12-5.76,16,16,0,0,1-1.28-5.75v-22c.24-4.24,1.6-7.36,4.48-9.76,1.36-1.2,3.36-1.76,6-1.76A9.35,9.35,0,0,1,236.18,40a15.54,15.54,0,0,1,1.28,5.6V58.31H224.11v9.52a6.18,6.18,0,0,0,1.28,3.75,2.29,2.29,0,0,0,1.68.64,2.53,2.53,0,0,0,2.56-2.15,6.34,6.34,0,0,0,.32-2.24V63ZM224.11,52H230V45.84A5.64,5.64,0,0,0,228.83,42a2.49,2.49,0,0,0-1.76-.64c-1.52,0-2.16,1-2.56,2.24a8.64,8.64,0,0,0-.4,2.24Z" transform="translate(-1.3 0)"/><path class="cls-3" d="M255.29,19.93h8.64V70.7h11.43v8H255.29Z" transform="translate(-1.3 0)"/><path class="cls-3" d="M291.12,45.36a10.14,10.14,0,0,0-.24-2.64,2,2,0,0,0-2-1.36c-1.36,0-1.92,1-2.16,2.32a16.89,16.89,0,0,0-.16,2.08v2.08h-8.08V46a12.36,12.36,0,0,1,3.12-8.24,10.22,10.22,0,0,1,7.76-3.44,9.88,9.88,0,0,1,6.87,2.8,9.7,9.7,0,0,1,3,7.12V71.1a40.06,40.06,0,0,0,.56,7.6h-7.92c-.71-.88-.71-3-.71-3.52h-.57a8.7,8.7,0,0,1-2.23,2.64,7,7,0,0,1-4.24,1.52,5.17,5.17,0,0,1-4-2c-1.36-1.52-2.48-4.24-2.48-8.79A16.85,16.85,0,0,1,281,57.75a19.33,19.33,0,0,1,6.32-5c2-1,3.51-1.75,3.84-2.63Zm0,12.23c-3.92,1.68-5.6,5.6-5.6,9.76a7.46,7.46,0,0,0,.4,2.4c.32,1,.88,1.67,1.84,1.67,1.84,0,3.36-1.12,3.36-2.63Z" transform="translate(-1.3 0)"/><path class="cls-3" d="M304.71,19.93h8.07V37.84a14.7,14.7,0,0,1,4.16-3,4.65,4.65,0,0,1,2.24-.56A5.62,5.62,0,0,1,324,37.2a12,12,0,0,1,1.44,5.68v27.9a11.45,11.45,0,0,1-1.44,5.6,5.53,5.53,0,0,1-4.8,3,7.93,7.93,0,0,1-4.32-1.76c-.72-.56-1.36-1.12-2.08-1.76V78.7h-8.07Zm8.07,49.18a2.56,2.56,0,0,0,2.4,2.63,2.38,2.38,0,0,0,2.16-2.63V44.56a2.39,2.39,0,0,0-2.16-2.64,2.75,2.75,0,0,0-2.4,2.64Z" transform="translate(-1.3 0)"/></g><polygon class="cls-4" points="0 26.7 9.1 17.1 14.6 18.5 28 6.2 33.6 8.8 47.1 0 63.6 11.9 70.2 9.7 84.6 21.6 88.4 20.9 93.9 25.9 91 27.9 86.2 23.3 82.7 23.9 68.9 12.3 62.2 14.2 47.1 3.5 40.4 16 50.7 24.4 35 20.1 20.4 26.6 10.8 28.4 6.6 30.1 0 26.7"/><path class="cls-3" d="M1.3,26.7,6,43.9l8.2,3.4L22,73.7l5.4-3.3L40.6,94.1,50.1,83l8.1,9.9,8.7-14.5,6.2,1.4L84.2,53.2l5.6-2.4,5.4-25s-4.9,2.6-8.4,1.5c0,0-6.5-2.4-9.4-1.3,0,0-7.1,2.4-9.5,1.9,0,0-4.3-.6-5.8-1.4,0,0-6.7-2.2-9.3.5,0,0-2.8,3.8-11.2.1,0,0-7.1-2.8-12.3.6,0,0-4.8,1.8-11.2-1.2,0,0-6.9-1.2-8.9.1C9.3,26.8,6.1,29.2,1.3,26.7Z" transform="translate(-1.3 0)"/><path class="cls-5" d="M69.7,49.7c.7,2.9-9.5,2.9-9.5,2.9-.2-.1-4.7.7-4.7.7a3.74,3.74,0,0,1-3.1-.3,1.83,1.83,0,0,0-1-.7l.5-.9,17.5-2.3.5.3" transform="translate(-1.3 0)"/><path class="cls-5" d="M69.4,47.2a4.87,4.87,0,0,1-.4-1.1,16.54,16.54,0,0,0-3.2-.7l-.7-.1H63.9c-2-.3-3.9-.8-5.7-1.2l-.7-.2c-2.1-.4-4-1.3-6.4-1.6a1.08,1.08,0,0,1-.7.3c-.1,0-.1-.1-.2-.1-1.2,1.5-1.6,1.4-1.6,1.4l.7.9,9.2,2.4,10.2.8h1Z" transform="translate(-1.3 0)"/><path class="cls-5" d="M71,47.1s5.8-3.8,7-3.2c0,0,1.2,1.3.5,6.3,0,0-.1,5.9-3.3,3.4,0,0-4.4-3.1-4.4-3.7" transform="translate(-1.3 0)"/><path class="cls-5" d="M21.9,48.3s-.8-.8.1-.9a2.52,2.52,0,0,0,.6-.2,4.87,4.87,0,0,1,1.2.1s5.5-.5,7-2.1c0,0,1-1,4.1-.5a7.57,7.57,0,0,1,1.5-.1,23.39,23.39,0,0,1,3.8-.9l7.4-.3s12.5,4.3,23.3,3.8c0,0,1.9-.3,2.2.7,0,0-.2,2.1-.6,2.1,0,0-.5.8-2.5-.3,0,0-11.3,1.6-11.7,1.5a30.72,30.72,0,0,0-6.7,1.4A12.32,12.32,0,0,1,48.5,54s-6.3.5-9-.5l-2.7-.6a8.44,8.44,0,0,1-5.2-.5s-4.7-.6-4.7-1.1l-2.2-1h-1a4.18,4.18,0,0,1-1.8-1.1C21.7,49,21.5,48.3,21.9,48.3Z" transform="translate(-1.3 0)"/><path class="cls-5" d="M40.3,43.7s1.3-5,1.7-5.1c0,0,.6,1,1.4-.6,0,0,.2.7.7.7,0,0-.3,1.5.5,1.2,0,0-.3,1.3.4,1.2,0,0-.3,1.1.4,1l.3.8s.3.6.6.6" transform="translate(-1.3 0)"/><path class="cls-5" d="M40.5,48s4.1-.6,4.2-.5,4.7-.3,5.2.3a4,4,0,0,1-.7,5.2s-2.1,2.5-6.1,1.2a23.26,23.26,0,0,0-2.6-1.7H39.2s2.2-.2,2.3-2.2C41.6,50.1,41.3,48,40.5,48Z" transform="translate(-1.3 0)"/><path class="cls-5" d="M37.1,52.5a27.59,27.59,0,0,1,.8,2.7s.7,5.7,2.3,5.9c0,0,2,1.3.2-1.7l-.6-2.2-.1-2.9s-.8-1.7-1.2-1.8S38.1,53.2,37.1,52.5Z" transform="translate(-1.3 0)"/><path class="cls-5" d="M30.9,45.5s1.9-1.2,2.7-.4a1.31,1.31,0,0,1-.7,1.9s-1.4.7-2.1,0C30.9,46.9,30.4,45.7,30.9,45.5Z" transform="translate(-1.3 0)"/><path class="cls-5" d="M32.7,46a.54.54,0,0,1-.7.5.54.54,0,0,1-.5-.5.54.54,0,0,1,.7-.5C32.4,45.5,32.6,45.7,32.7,46Z" transform="translate(-1.3 0)"/><path class="cls-5" d="M33,52.4a2.48,2.48,0,0,0,3.2-1.5h0s1.9-1.2,1.9-1.9c0,0,1.9-2.2,2.2-2.1" transform="translate(-1.3 0)"/><path class="cls-5" d="M39.5,48.7s-1.7,2.1-2.9,2.4" transform="translate(-1.3 0)"/><path class="cls-5" d="M38.9,50a4.32,4.32,0,0,1-2.6,1.3" transform="translate(-1.3 0)"/><path class="cls-5" d="M37.9,51.4a15.55,15.55,0,0,1-2.3.8" transform="translate(-1.3 0)"/><path class="cls-5" d="M38,45.7s.2.7,1.4.2c0,0-.4.3.2.2,0,0-.7.5-.2.6,0,0-1.2.1-.8.2l.4.2s.5.2,0,.3l-.5.1-.8.1v.3" transform="translate(-1.3 0)"/><path class="cls-5" d="M22.6,47.7a7.06,7.06,0,0,0,2.4.6s6,1.4,6.5,2.1" transform="translate(-1.3 0)"/><path class="cls-5" d="M22.8,49.6a4,4,0,0,1,1.5.3l1.2.6s4.7.9,5.4,1.4" transform="translate(-1.3 0)"/><path class="cls-5" d="M32.5,51.2a18.12,18.12,0,0,0-3.1-.9,24.91,24.91,0,0,1-3.7-.9" transform="translate(-1.3 0)"/><path class="cls-5" d="M31.9,50.7a8.8,8.8,0,0,1-1.5-.5c-.5-.2-7.3-1.7-7.3-1.7-.5-.2-1-.4-1.4-.6" transform="translate(-1.3 0)"/><path class="cls-5" d="M25.8,48.2l2.7.7s2.2.5,2.4.5a14,14,0,0,1,1.8,1.2s.2.7-.7.3" transform="translate(-1.3 0)"/><path class="cls-5" d="M39,44.7s-1.3.7.3,1c0,0,1.9.2,1.8.6a5.33,5.33,0,0,0-1.6,2.3,7.73,7.73,0,0,1-2.9,4" transform="translate(-1.3 0)"/></svg>