<?xml version="1.0" encoding="utf-8"?>
<!-- Generator: Adobe Illustrator 24.0.1, SVG Export Plug-In . SVG Version: 6.00 Build 0)  -->
<svg version="1.1" id="Layer_1" xmlns="http://www.w3.org/2000/svg" xmlns:xlink="http://www.w3.org/1999/xlink" x="0px" y="0px"
	 viewBox="0 0 331.1 98.7" style="enable-background:new 0 0 331.1 98.7;" xml:space="preserve">
<style type="text/css">
	.st0{fill:#DFEEF6;}
	.st1{fill:#007CC2;}
	.st2{font-family:'LeagueGothic-Regular';}
	.st3{font-size:79.96px;}
	.st4{fill:#00B8E8;}
	.st5{fill:#FFFFFF;}
</style>
<title>Daane lab logo ice</title>
<polygon class="st0" points="3.2,30.4 3.4,25.5 50.5,2.1 65.7,12.8 72.3,11 85.2,22.8 89.6,22 94.5,26.5 93.7,26.1 93.4,29.5 "/>
<text transform="matrix(1 0 0 1 105.93 78.7)" class="st1 st2 st3">Da</text>
<text transform="matrix(1 0 0 1 161.5 78.7)" class="st1 st2 st3">a</text>
<text transform="matrix(1 0 0 1 187.09 78.7)" class="st1 st2 st3">ne Lab</text>
<polygon class="st4" points="1.3,26.7 10.4,17.1 15.9,18.5 29.3,6.2 34.9,8.8 48.4,0 64.9,11.9 71.5,9.7 85.9,21.6 89.7,20.9 
	95.2,25.9 92.3,27.9 87.5,23.3 84,23.9 70.2,12.3 63.5,14.2 48.4,3.5 41.7,16 52,24.4 36.3,20.1 21.7,26.6 12.1,28.4 7.9,30.1 "/>
<path class="st1" d="M1.3,26.7l4.7,17.2l8.2,3.4l7.8,26.4l5.4-3.3l13.2,23.7l9.5-11.1l8.1,9.9l8.7-14.5l6.2,1.4l11.1-26.6l5.6-2.4
	l5.4-25c0,0-4.9,2.6-8.4,1.5c0,0-6.5-2.4-9.4-1.3c0,0-7.1,2.4-9.5,1.9c0,0-4.3-0.6-5.8-1.4c0,0-6.7-2.2-9.3,0.5
	c0,0-2.8,3.8-11.2,0.1c0,0-7.1-2.8-12.3,0.6c0,0-4.8,1.8-11.2-1.2c0,0-6.9-1.2-8.9,0.1C9.3,26.8,6.1,29.2,1.3,26.7z"/>
<path class="st5" d="M69.7,49.7c0.7,2.9-9.5,2.9-9.5,2.9c-0.2-0.1-4.7,0.7-4.7,0.7c-1,0.4-2.2,0.2-3.1-0.3c-0.2-0.3-0.6-0.6-1-0.7
	l0.5-0.9l17.5-2.3l0.5,0.3"/>
<path class="st5" d="M69.4,47.2c-0.2-0.4-0.3-0.7-0.4-1.1c-1-0.3-2.1-0.6-3.2-0.7l-0.7-0.1h-0.6h-0.6c-2-0.3-3.9-0.8-5.7-1.2
	l-0.7-0.2c-2.1-0.4-4-1.3-6.4-1.6c-0.4,0.3-0.6,0.3-0.7,0.3c-0.1,0-0.1-0.1-0.2-0.1c-1.2,1.5-1.6,1.4-1.6,1.4l0.7,0.9l9.2,2.4
	l10.2,0.8h1L69.4,47.2z"/>
<path class="st5" d="M71,47.1c0,0,5.8-3.8,7-3.2c0,0,1.2,1.3,0.5,6.3c0,0-0.1,5.9-3.3,3.4c0,0-4.4-3.1-4.4-3.7"/>
<path class="st5" d="M21.9,48.3c0,0-0.8-0.8,0.1-0.9c0,0,0.1,0,0.6-0.2c0.4,0,0.8,0,1.2,0.1c0,0,5.5-0.5,7-2.1c0,0,1-1,4.1-0.5
	c0.5-0.1,1-0.1,1.5-0.1c1.2-0.4,2.5-0.7,3.8-0.9l7.4-0.3c0,0,12.5,4.3,23.3,3.8c0,0,1.9-0.3,2.2,0.7c0,0-0.2,2.1-0.6,2.1
	c0,0-0.5,0.8-2.5-0.3c0,0-11.3,1.6-11.7,1.5c-2.3,0.2-4.5,0.7-6.7,1.4c-1,0.6-2,1.1-3.1,1.4c0,0-6.3,0.5-9-0.5l-2.7-0.6
	c-1.7,0.4-3.6,0.2-5.2-0.5c0,0-4.7-0.6-4.7-1.1l-2.2-1h-1c-0.7-0.2-1.3-0.6-1.8-1.1C21.7,49,21.5,48.3,21.9,48.3z"/>
<path class="st5" d="M40.3,43.7c0,0,1.3-5,1.7-5.1c0,0,0.6,1,1.4-0.6c0,0,0.2,0.7,0.7,0.7c0,0-0.3,1.5,0.5,1.2c0,0-0.3,1.3,0.4,1.2
	c0,0-0.3,1.1,0.4,1l0.3,0.8c0,0,0.3,0.6,0.6,0.6"/>
<path class="st5" d="M40.5,48c0,0,4.1-0.6,4.2-0.5s4.7-0.3,5.2,0.3c1.1,1.7,0.8,3.9-0.7,5.2c0,0-2.1,2.5-6.1,1.2
	c-0.8-0.6-1.7-1.2-2.6-1.7h-1.3c0,0,2.2-0.2,2.3-2.2C41.6,50.1,41.3,48,40.5,48z"/>
<path class="st5" d="M37.1,52.5c0.3,0.9,0.6,1.8,0.8,2.7c0,0,0.7,5.7,2.3,5.9c0,0,2,1.3,0.2-1.7l-0.6-2.2l-0.1-2.9
	c0,0-0.8-1.7-1.2-1.8S38.1,53.2,37.1,52.5z"/>
<path class="st5" d="M30.9,45.5c0,0,1.9-1.2,2.7-0.4c0,0,0.7,1.4-0.7,1.9c0,0-1.4,0.7-2.1,0C30.9,46.9,30.4,45.7,30.9,45.5z"/>
<path class="st5" d="M32.7,46c0,0.3-0.3,0.6-0.7,0.5c-0.3,0-0.5-0.3-0.5-0.5c0-0.3,0.3-0.6,0.7-0.5C32.4,45.5,32.6,45.7,32.7,46z"/>
<path class="st5" d="M33,52.4c1.3,0.5,2.7-0.2,3.2-1.5c0,0,0,0,0,0c0,0,1.9-1.2,1.9-1.9c0,0,1.9-2.2,2.2-2.1"/>
<path class="st5" d="M39.5,48.7c0,0-1.7,2.1-2.9,2.4"/>
<path class="st5" d="M38.9,50c-0.7,0.7-1.6,1.2-2.6,1.3"/>
<path class="st5" d="M37.9,51.4c-0.7,0.3-1.5,0.6-2.3,0.8"/>
<path class="st5" d="M38,45.7c0,0,0.2,0.7,1.4,0.2c0,0-0.4,0.3,0.2,0.2c0,0-0.7,0.5-0.2,0.6c0,0-1.2,0.1-0.8,0.2l0.4,0.2
	c0,0,0.5,0.2,0,0.3l-0.5,0.1l-0.8,0.1v0.3"/>
<path class="st5" d="M22.6,47.7c0.8,0.3,1.6,0.6,2.4,0.6c0,0,6,1.4,6.5,2.1"/>
<path class="st5" d="M22.8,49.6c0.5,0,1,0.1,1.5,0.3l1.2,0.6c0,0,4.7,0.9,5.4,1.4"/>
<path class="st5" d="M32.5,51.2c-1-0.4-2.1-0.7-3.1-0.9c-1.2-0.2-2.5-0.5-3.7-0.9"/>
<path class="st5" d="M31.9,50.7c-0.5-0.1-1-0.3-1.5-0.5c-0.5-0.2-7.3-1.7-7.3-1.7c-0.5-0.2-1-0.4-1.4-0.6"/>
<path class="st5" d="M25.8,48.2l2.7,0.7c0,0,2.2,0.5,2.4,0.5c0,0,1.7,1,1.8,1.2c0,0,0.2,0.7-0.7,0.3"/>
<path class="st5" d="M39,44.7c0,0-1.3,0.7,0.3,1c0,0,1.9,0.2,1.8,0.6c-0.7,0.6-1.3,1.4-1.6,2.3c-0.5,1.6-1.5,3-2.9,4"/>
</svg>
