<svg id="Layer_1" data-name="Layer 1" xmlns="http://www.w3.org/2000/svg" viewBox="0 0 241.05 67.05"><defs><style>.cls-1,.cls-4{fill:#e4203c;}.cls-2{fill:#fff;}.cls-3{fill:none;stroke:#e4203c;stroke-miterlimit:10;}.cls-4{font-size:60px;font-family:LeagueGothic-Regular, League Gothic;}.cls-5{letter-spacing:0em;}.cls-6{fill:#58555a;}</style></defs><title>Daane logo fish v2</title><rect class="cls-1" x="4.62" y="2.12" width="58.26" height="58.26" rx="20.49"/><path class="cls-2" d="M180.5,105.77s34.61.23,47.14-15.71c0,0-13.35-17-43.86-15.39l-5.94.25,7-9S221.65,67,232,83.25c0,0,8.36-13.78,7.14-18.55l2.12,10.65s-4.63,7.49-6.26,12.53c0,0,8.58,12,7.49,15.53l-3.62,9.92S231.46,94.69,229.82,94c0,0-9.21,13.47-44.22,15.78Z" transform="translate(-177.84 -57.4)"/><polygon class="cls-2" points="11.45 35.43 9.81 34.66 8.18 35.43 8.18 18.41 11.45 18.41 11.45 35.43"/><polygon class="cls-2" points="8.22 36.43 9.81 35.7 11.49 36.43 11.56 46.6 8.22 46.92 8.22 36.43"/><polygon class="cls-2" points="18.35 30.12 19.98 30.89 21.62 30.12 21.59 45.51 18.35 46.06 18.35 30.12"/><polygon class="cls-2" points="21.57 29.12 19.98 29.85 18.3 29.12 18.21 18.95 21.52 19.36 21.57 29.12"/><polygon class="cls-2" points="31.79 34.66 30.15 33.89 28.52 34.66 28.52 20.86 31.79 22.36 31.79 34.66"/><polygon class="cls-2" points="28.56 35.71 30.15 34.93 31.83 35.71 31.92 43.46 28.74 44.56 28.56 35.71"/><polygon class="cls-2" points="38.51 30.12 40.14 30.91 41.78 30.12 41.64 38.79 38.51 40.34 38.51 30.12"/><polygon class="cls-2" points="41.73 29.12 40.14 29.85 38.46 29.12 38.37 24.6 41.69 26.71 41.73 29.12"/><path class="cls-2" d="M184.31,75.33" transform="translate(-177.84 -57.4)"/><path class="cls-3" d="M227,90.11C209.24,72.67,183.49,75.4,183.49,75.4" transform="translate(-177.84 -57.4)"/><path class="cls-3" d="M184.2,104" transform="translate(-177.84 -57.4)"/><path class="cls-3" d="M184.79,104.82s27.11.27,41-13.89" transform="translate(-177.84 -57.4)"/><text class="cls-4" transform="translate(72.06 52.05)">Da<tspan class="cls-5" x="41.7" y="0">a</tspan><tspan x="60.9" y="0">ne </tspan><tspan class="cls-6" x="109.68" y="0">Lab</tspan></text></svg>